<svg width="48" height="48" viewBox="0 0 48 48" fill="none" xmlns="http://www.w3.org/2000/svg">
<path d="M33.7614 35.8623L27.3413 41.0723C26.227 42.0099 24.6911 42.4 22.9981 42.4C21.3052 42.4 19.7711 42.0099 18.655 41.0723L8.33991 32.3535C7.23268 31.4159 6.66657 30.0477 6.66657 28.6256C6.66657 27.1975 7.23268 25.9073 8.33991 24.9772L18.6264 16.2104C19.7336 15.2818 21.3052 14.9218 22.9981 14.9218C24.6911 14.9218 26.227 15.3118 27.3413 16.2494L33.7614 21.4594C34.9883 22.4915 37.017 22.454 38.2903 21.3814C39.5547 20.3118 39.603 18.6091 38.3743 17.577L32.172 12.31C30.563 10.9734 28.5432 10.0523 26.3484 9.62924L32.2185 4.62925C33.4471 3.59865 33.4096 1.89449 32.1345 0.824882C30.8594 -0.244722 28.8325 -0.277726 27.6056 0.746875L3.55205 20.9524C1.21795 22.9205 0 25.6223 0 28.6226C0 31.6169 1.21973 34.4132 3.55205 36.3754L13.9046 45.0942C16.2387 47.0549 19.4675 48 23.0392 48C26.602 48 29.8272 46.9754 32.1631 45.0162L38.3761 39.7342C39.6047 38.7096 39.5565 37.0084 38.2832 35.9373C37.0099 34.8662 34.9812 34.8272 33.7632 35.8593L33.7614 35.8623ZM44.9766 26.0243H20.8123C19.1479 26.0243 17.7906 27.226 17.7906 28.7111C17.7906 30.1978 19.1479 31.4069 20.8123 31.4069H44.9766C46.6428 31.4069 48 30.1963 48 28.7111C48 27.2275 46.6428 26.0243 44.9766 26.0243Z" fill="white"/>
</svg>
