<svg xmlns="http://www.w3.org/2000/svg" viewBox="0 0 25 25" id="Audiomack"><defs><mask id="a"><path fill="#FFF" d="M0,0h25v25h-25Z"></path></mask></defs><g mask="url(#a)" fill="#26d7fe" class="color000000 svgShape"><path fill="#d45985" fill-rule="evenodd" d="M21.6561,3.15433c0.5887,0.08162 1.027,0.58488 1.027,1.17918v9.18049l0.7489,-0.2502c0.6237,-0.2083 1.298,0.1283 1.5063,0.752c0.2083,0.6236 -0.1283,1.298 -0.7519,1.5063l-2.3166,0.7738c-0.3631,0.1212 -0.7623,0.0605 -1.0729,-0.1632c-0.3106,-0.2237 -0.4947,-0.5832 -0.4947,-0.966v-2.2474l-2.0398,7.2141c-0.1617,0.5719 -0.7203,0.9369 -1.309,0.8553c-0.5887,-0.0816 -1.027,-0.5849 -1.027,-1.1792v-6.4495l-1.877,3.5267c-0.2194,0.4123 -0.6596,0.6582 -1.1257,0.6288c-0.4661,-0.0293 -0.872,-0.3285 -1.0379,-0.7651l-1.0778,-2.8349l-0.85621,1.7697c-0.20702,0.4279 -0.64873,0.6916 -1.1236,0.6708c-0.47487,-0.0207 -0.89188,-0.322 -1.06078,-0.7663l-0.39519,-1.0395l-0.11145,0.1055c-0.40375,0.3821 -1.0182,0.4339 -1.48024,0.1248l-1.68065,-1.1243c-0.54647,-0.3656 -0.69311,-1.1049 -0.32753,-1.6514c0.36558,-0.5465 1.10493,-0.6931 1.6514,-0.3275l0.89071,0.5958l0.71782,-0.6793c0.28907,-0.2736 0.69571,-0.3846 1.08369,-0.2959c0.38798,0.0887 0.70595,0.3655 0.84738,0.7375l0.04813,0.1266l0.85625,-1.7697c0.20707,-0.42785 0.64877,-0.69157 1.12357,-0.67081c0.4749,0.02075 0.8919,0.32201 1.0608,0.76631l1.1274,2.9657l2.8865,-5.4234c0.2567,-0.48239 0.8089,-0.72804 1.3391,-0.59573c0.5302,0.13231 0.9022,0.60859 0.9022,1.15504v2.63429l2.0398,-7.21409c0.1617,-0.57188 0.7204,-0.9369 1.309,-0.85528Z" class="color58368a svgShape"></path><path fill="#d85b53" fill-rule="evenodd" d="M0,12.6668c0,-0.6575 0.532988,-1.1905 1.19046,-1.1905h0.59523c0.65748,0 1.19047,0.533 1.19047,1.1905c0,0.6574 -0.53299,1.1904 -1.19047,1.1904h-0.59523c-0.657472,0 -1.19046,-0.533 -1.19046,-1.1904Z" class="colorde002b svgShape"></path></g></svg>